<svg xmlns="http://www.w3.org/2000/svg" id="Calque_2" data-name="Calque 2" viewBox="0 0 60.2 42.86"><defs><style>.cls-1{fill:#1e1e1e}</style></defs><g id="Calque_1-2" data-name="Calque 1"><path d="M60.2 32.19c0 1.24-.55 2.3-1.56 3-.77.53-1.78.81-2.92.81-.64 0-1.24-.09-1.81-.27-.2.07-.41.11-.63.11h-1.82c-.29 0-.57-.06-.82-.18-.25.11-.53.18-.82.18h-1.53c-.11 0-.22 0-.33-.03q-.165.03-.33.03h-4c-.15 0-.29-.02-.43-.05-.12.03-.24.04-.36.05v2.68c0 1.09-.88 1.97-1.97 1.97H39.4c.1.47.03.96-.21 1.39-.35.61-1 .99-1.71.99h-1.8c-.32 0-.62-.08-.89-.21-.27.14-.58.21-.89.21h-5.84c-.36 0-.7-.1-1-.27-.55.18-1.19.27-1.9.27h-2.44c-1.09 0-1.97-.88-1.97-1.97v-5.06h-.6c-.35 0-.68-.09-.96-.25-.28.16-.61.25-.96.25h-1.82c-.31 0-.6-.07-.86-.2-.26.13-.55.2-.87.2h-1.34c-.44 0-.84-.14-1.17-.39-.7.36-1.51.55-2.37.55-1.24 0-2.4-.41-3.27-1.17-.26-.23-.54-.52-.79-.89-.1.03-.2.05-.3.07a1.96 1.96 0 0 1-1.96 1.82H1.95c-1.09 0-1.97-.88-1.97-1.97v-5.58c0-1.09.88-1.97 1.97-1.97h2.21c1.1 0 2.03.23 2.75.7.65-.45 1.43-.73 2.28-.82 0-.49.17-.97.52-1.34l2.62-2.86c-.26-.54-.48-1.09-.65-1.65v-.02c-.04-.1-.1-.28-.15-.49-.31-1.37.52-2.08.79-2.27.33-.23.71-.36 1.11-.36.9-.01 1.86-.02 3.03-.02h.33l2.22-2.24c.01-.06.02-.11.04-.17.19-.71.43-1.34.66-1.96.04-.1.07-.19.11-.29.02-.04.03-.08.05-.13v-.07s-.01-.03-.02-.03c0-.02-.02-.03-.02-.05-.55-.58-.87-1.4-.83-2.2 0-.18.04-.34.07-.47a5 5 0 0 1-.07-.53v-.02c-.05-.8.01-1.94.56-2.82.47-.76 1.2-1.18 1.91-1.43 0-.14 0-.31.02-.48 0-.04.02-.16.03-.18 0-.03 0-.06-.01-.08-.03-.21-.09-.52-.06-.9.04-.62.29-1.2.7-1.63.54-.57 1.22-.72 1.44-.77.43-.1.85-.15 1.24-.15.29 0 .58.03.85.08 1.2.24 2.12.95 2.54 1.94.2.46.29.96.27 1.52 0 .11 0 .22-.02.33.06-.05.13-.1.2-.15.14-.09.28-.17.44-.23.29-.2.68-.4 1.14-.48l1.13-1.13a2.125 2.125 0 0 1 2.1-2.47c.28 0 .56.05.84.16.35.13.68.31.98.52.07.05.13.1.18.14.07.04.16.1.25.16.08.06.17.11.24.17.18.14.36.3.51.46.12.12.22.26.31.39.32-.08.64-.13.98-.13.41 0 .81.06 1.2.19.88.28 1.57.89 1.91 1.68.29.69.24 1.35.22 1.7v.07c-.02.21-.04.44-.06.67.42.28.84.7 1.17 1.36.14.29.24.59.32.85 0 .01 0 .03.01.04.28.31.41.65.53 1 .15.43.18.63.19.77.02.17.01.32 0 .45v.03c.05.24.12.6.1 1.03-.01.48-.11.92-.19 1.28-.02.08-.04.17-.05.26.02.08.03.16.04.26l3.63 3.71 1.19.61c.17.09.33.2.47.34l3.69 3.59c.67.65.89 1.64.55 2.52s-1.16 1.47-2.11 1.5h-.01c-.39.01-.79.02-1.1.02h-.21c-.58 0-1.15-.18-1.63-.5-.06.38-.23.74-.48 1.02h.38c.12 0 .25.01.36.03q.18-.03.36-.03h2.26c1.03 0 1.84.21 2.48.55.72-.46 1.62-.7 2.63-.7 1.58 0 2.94.56 3.92 1.63.36.4.55.92.51 1.46-.02.39-.16.75-.39 1.06.28.47.49 1.08.49 1.87Z" style="fill:#fff"/><path d="M38.42 22.39c-2.69-.14-9.4-1.05-11.97-1.84 0-.06.29-.07.32-.07.56.1 1.72.34 2.28.44 1.95.37 6.45.93 8.43 1.1l-.78-.79c-2.87-.41-8.54-1.37-11.34-2.09-.96-.04-1.93.02-2.88.03-3.01.02-6.02-.03-9.02.01-.09.06.06.47.09.57.76 2.37 2.39 4.63 4.44 6.03.18.12.37.28.59.32.51.08 1.16.1 1.69.13 5.23.31 10.17.45 15.4.16l5.74-.61c-.43-.48-2.61-2.98-3.01-3.4Zm-14.27-1.91h-9.08c-.13 0-.25-.04-.34-.12a.52.52 0 0 1-.2-.3c.24 0 2.54 0 4.9-.02 2.36 0 4.76-.01 5.2-.02a.48.48 0 0 1-.48.45Zm2.3 3.76c-.63-1.24-.85-2.63-1.01-3.99l1.13 4.17c-.05-.02-.09-.12-.12-.18" class="cls-1"/><path d="m45.77 21.47-.15-.2-2.03.2c-2.15.07-6.19-.12-6.88-.23l.78.79c2.45.2 6.61.14 6.81.14l-.27.06c-2.39.27-6.11.15-6.09.17.38.33 3.5 3.4 3.5 3.4 1.14-.1 1.29-.19 2.42-.34.68-.09 1.23-.25 1.89-.44l-1.44-.11 1.48-3.43Z" class="cls-1"/><path d="m50.81 23.18-3.69-3.59-1.47-.76-4.51-4.61c-.03-.08.11-.28.11-.42 0-.18-.09-.28-.09-.4.02-.51.26-1.16.28-1.73.01-.39-.12-.72-.13-1.04 0-.07.04-.13.03-.21 0-.08-.18-.61-.23-.65-.05-.05-.12-.04-.18-.13-.16-.25-.29-.88-.46-1.2-.4-.79-.89-.77-1.67-1l-.19-.36c.19-.03.26-.09.31-.26.16-.49.2-.99.23-1.5.02-.26.04-.54-.07-.78-.12-.29-.4-.48-.7-.58-.5-.16-1.08-.12-1.53.15-.37.22-.63.65-.59 1.08.02.19.09.38.13.57s.03.42-.13.54c-.15.11-.3.2-.38.38-.18.41.13.82.52.96l-.77.32c-.13-.11-.32-.32-.5-.32-.06 0-.13.04-.18.04-.1 0-.14-.13-.21-.2l-.55-.55c-.05-.05-.72-.73-.73-.72.06-.05.12-.1.18-.16.04-.04.12-.08.1-.15-.01-.04-.05-.07-.09-.09s-.09-.05-.13-.05a.36.36 0 0 0-.2.06l-.18.12c-.22.16-.42.35-.6.55-.03.03-.05.06-.07.09s-.02.08 0 .11c.04.09.18.12.26.09.05-.02.1-.05.14-.08l.1-.07s.06-.06.09-.04c.04.02.07.09.1.12l.77.79.45.46c.05.09-.04.16-.05.26-.02.19.1.4.18.57.12.22.19.14.04.44-.33.69-.94 1.36-.47 2.18.24.42.71.2 1.01-.04.11-.08.22-.27.3-.33.07-.05.18-.04.26-.11.06-.04.21-.31.23-.31.04.02.04.07.05.1.05.16.19.77.2.93.01.32-.55 1.23-.63 1.63-.03.15 0 .16.07.28-.52.99-.95 2.11-1.19 3.2-.19.86-.42 3.56-.36 3.69 0 0 1.64.3 1.68.24.07-.64.09-1.18.13-1.82.03-.44-.03-.89.02-1.33l1.51-2.41c.94 1.97 1.72 4.02 2.34 6.11h1.45c-.22-.95-.33-2.32-.77-3.2-.09-.17-.31-.45-.35-.62-.12-.44-.11-1.25-.16-1.75-.05-.43-.18-1-.19-1.41 0-.05 0-.12.06-.14 0 .32.22.23.35.3.04.02.05.11.13.15.13.06.27.02.39-.03l.06.02c1.47 1.49 2.92 3.01 4.37 4.5.15.16.26 1.02.26 1.02.95 1.07 2.7 2.93 3.36 3.5.18.16.41.25.66.25.33 0 .82 0 1.24-.02.33-.01.49-.41.25-.64ZM37 7.55s.17.28.27.25c.08-.38 0-.77-.03-1.15 0-.12.02-.31 0-.4 0-.01-.15-.07-.21-.2-.18-.39-.03-.64.35-.33l.32-.25c.23-.02.55.15.77.08.08-.02.15-.15.25-.1.07.04.21.4.19.47-.03.1-.38.02-.38.16 0 .1.24.18.22.25-.02.09-.33-.02-.41.02-.02.18.31.12.34.21.01.52-.39.33-.73.29l-.4-.21c.09.36.29.7.53.98-.16.25-.35.48-.49.73-.12.21-.19.42-.29.62-.02.03.02.06-.07.04 0-.18-.19-.71-.33-.82-.1-.07-.25.07-.36.07.19-.22.3-.49.45-.72Zm1.58.06v.69l-.41-.14.2-.18zm-3.23 1.48c-.2.51-.23 1.16-.42 1.65-.08.21-.27.4-.47.5-.29-.37-.09-.91.08-1.29.08-.18.42-.7.44-.82.03-.26-.21-.52-.36-.71-.07-.13.09-.27.19-.34.17-.13.53-.29.63-.01-.16.03-.43.12-.52.26.21 0 .6-.37.7-.07l-.4.27c.2-.07.3-.16.46-.16.09 0 .17.08.17.17-.26.12-.59.2-.5.55m4.23 4.55c-.05.01-.06-.02-.09-.05-.31-.24-.68-.73-.97-1.04-.79-.82-1.62-1.6-2.4-2.43-.09-.1-.48-.49-.52-.55-.03-.06 0-.18 0-.25 1.38 1.32 2.68 2.72 4.02 4.09l-.04.21Zm-3.7-4.83h.26l2.92 2.87c.09-.51.22-.92.3-1.43.04-.29.03-.52.04-.81 0-.04-.02-.12.03-.11.02.15.06.3.11.44.06.18.22.46.26.62.06.27.03.62.32.78-.06.54.1 1.19.03 1.72-.01.1-.08.15-.16.2 0-.04-.02-.07-.05-.1-1.21-1.37-2.82-2.86-4.07-4.19Zm5.09 4.99c-.02.19-.4.45-.58.52l-.07-.12.39-.47c-.25.09-.35.39-.64.41-.07-.1.36-.56.33-.59-.21.04-.37.54-.59.3-.01-.09.26-.44.34-.5.08-.07.3-.16.31-.25v-1.63c0-.08.04-.16.03-.25 0-.15-.15-.37-.12-.46.05-.18.38-.16.52-.14.35.91 0 1.9-.09 2.83 0 .16.18.2.16.37Z" class="cls-1"/><path d="M34.8 2.72s-.09-.06-.13-.09c-.09-.06-.19-.12-.28-.17-.08-.05-.13-.11-.21-.16a2.4 2.4 0 0 0-.54-.29c-.07-.03-.16-.05-.22-.01-.07.04-.09.14-.07.21.04.14.17.22.28.29.09.06.22.12.25.24.02.1-.21.26-.28.33l-.33.33-.74.74-1.47 1.47c-.11.08-.21-.04-.32-.06-.18-.03-.4.09-.54.2-.05.04-.1.13-.1.13-.06.03-.16-.02-.29.07-.23.16-.17.33-.21.54-.02.1-.13.21-.14.33-.02.14.11.25.03.37l-4.14 4.2c-.13.06-.36-.12-.28-.24l1.77-1.8.39-.95-.05.6 1.12-1.16c-.29-.44-.48-.81-.98-1.01-.32-.12-.89-.2-1.14-.33-.04-.02-.21-.23-.23-.27-.02-.05 0-.12 0-.17.02-.13.04-.26.08-.39.02-.09.04-.18.11-.24.1-.08.14-.1.2-.22s.09-.24.13-.36c.07-.24.1-.49.11-.74 0-.24-.02-.49-.12-.71-.19-.45-.67-.69-1.13-.78-.41-.08-.86-.04-1.27.06-.16.04-.33.09-.45.21-.1.11-.15.26-.16.41s.01.3.04.44c.02.15.06.3.05.45s-.04.29-.06.43c-.02.13.02.28.05.41l.16.97-.3.36c-.66.13-1.74.3-2.12.91-.27.43-.3 1.18-.27 1.67.02.24.14.68.12.88 0 .09-.12.22-.12.35-.01.27.13.61.33.79.24.22.15.16.29.43.05.1.27.33.28.38.06.2-.1.55 0 .71.02.04.09.05.09.07 0 .05-.26.58-.31.69-.26.7-.52 1.35-.71 2.07l.09-.05 2.24-2.27c.04-.08.41 0 .37.09l-6.22 6.28h.85l1.66-1.67c1.45-1.47 2.92-2.94 4.38-4.4.09.07.09.32.02.39l-3.46 3.53c-.08.26-.5.81-.7 1.59l2.43-.05c.64-1.7.87-1.61 1.75-3.19l2.02 2.29.04 1.28 2.26.4c.06-.18.05-.23.04-.48-.02-.5-.01-1.44-.14-1.89-.24-.85-1-2.12-1.45-2.91-.28-.49-.65-.94-.82-1.47.39-.47.38-1.04.49-1.62l-.72.73c-.06.05-.33-.08-.31-.14l4.09-4.12c.07-.01.05.03.05.08 0 .15-.16.38-.23.53-.22.51-.47 1.05-.56 1.59-.05 0-.06-.11-.06-.15v-.25c0-.16.14-.53.12-.63 0-.06-.03-.03-.05-.09l-1.35 1.38c.2.09.37.55.6.51.05 0 .08-.06.12-.06.06 0 .5.23.61.27.3.11.73.29 1 .04.24-.23.6-.9.69-1.22.16-.57.1-1.13.19-1.7.08-.5.74-.96.57-1.6-.02-.09-.12-.17-.06-.27.45-.45.9-.91 1.36-1.36l.93-.93.39-.39s.12-.16.17-.16.17.1.21.13l.24.15c.06.04.13.08.2.08.1 0 .19-.08.21-.18.03-.15-.06-.29-.17-.4-.08-.09-.18-.17-.27-.25Zm-8.78 4.51.25.33c-.11.02-.31-.03-.41.02-.06.03-.18.27-.28.3.02-.1.06-.22.11-.31.09-.18.12-.06.11-.3v-.49zM24.04 4.4c.14.05.24.17.39.19.26.03.78-.18.94-.12.06.02.06.29.15.37.14-.01.39-.24.45-.03.04.13-.13.55-.33.47-.01.77-.31 1.5-.41 2.26l-.56-.7c.12-.11.71-1.05.65-1.12-.26.14-.54.35-.86.34-.06 0-.34-.06-.38-.09-.09-.07-.07-.3 0-.37.13-.13.45.14.43-.19-.16-.06-.3-.08-.47-.07.08-.15.36-.15.35-.35-.1-.05-.44-.04-.49-.12s.13-.36.14-.47m-.41 2.2c.09-.02.05.02.07.07.08.25.15.51.19.77.19.05.45.04.63.13s.36.39.52.53c-.03.03-.51-.37-.59-.39-.13-.04-.7-.02-.76-.06a1 1 0 0 1-.06-.22zm-1.59 2.88c.07-.02.36-.09.41-.09h.45c.04-.43-.1-.83-.11-1.25.07.19.17.37.22.57.06.24.05.59.12.79.05.16.49.36.18.65-.11-.67-.96-.63-1.47-.53.03-.07.13-.1.2-.13Zm3.11 2.63s-.24-.21-.26-.19l.49.69c-.01.11-.11.23-.22.16-.17-.11-.33-.39-.52-.5l.37.68c-.23.41-.36-.11-.55-.2-.13-.06-.26-.02-.39-.05-.13-.02-.41-.17-.45-.31-.02-.07.02-.14 0-.16-.02-.03-.21-.11-.26-.14-.26-.16-.54-.39-.76-.59-.14-.13-.74-.76-.75-.91 0-.13.33-.38.46-.41.17-.05.53-.02.68.06.13.07.57.68.69.84.06.08.37.57.4.59.12.07.68-.18.94-.11.2.05.53.55.68.7-.27.28-.35.04-.55-.14Zm6.11-5.48-.78.85c-.04-.11.02-.24-.06-.34-.09-.11-.69-.25-.52-.46.02-.02.05-.04.08-.04.12 0 .45.13.59.17.06.01.07.04.12-.02l-.66-.38c.21-.39.6.1.91.11l-.24-.25-.29-.19v-.09c.31-.17.59.04.78.27.11.13.19.22.08.39Zm-16.3 16.49-2.55 3.08h-1.24l3.37-3.67c.1.19.31.42.42.6Z" class="cls-1"/><path d="M37.69 35.32v3.2h3.2v-3.2zm2.66 1.91h-.74v.74h-.63v-.74h-.74v-.63h.74v-.74h.63v.74h.74z" style="fill:#da291c"/><path d="M4.17 28.29h-2.2v5.58H3.5v-1.7h.68c1.62 0 2.44-.66 2.44-1.93s-.74-1.94-2.45-1.94Zm.05 2.69h-.73v-1.47h.77c.51 0 .77.26.77.7 0 .6-.33.77-.82.77Zm5.6-2.84c-1.54 0-2.91.89-2.91 2.93s1.49 2.96 2.91 2.96c1.57 0 2.92-.96 2.92-2.94 0-2.17-1.48-2.95-2.92-2.95m0 4.65c-.86 0-1.34-.61-1.34-1.72s.57-1.68 1.34-1.68c.88 0 1.35.64 1.35 1.71 0 1.13-.58 1.69-1.35 1.69m7.09-4.5v3.41l-1.71-3.41h-1.85v5.58h1.34v-3.35l1.73 3.35h1.82v-5.58H16.9Zm1.74 0v1.24h1.53v4.33h1.53v-4.33h1.54v-1.24zm7.56-.15c-1.55 0-2.91.89-2.91 2.93s1.49 2.96 2.91 2.96c1.57 0 2.92-.96 2.92-2.94 0-2.17-1.47-2.95-2.92-2.95m0 4.65c-.86 0-1.34-.61-1.34-1.72s.57-1.68 1.34-1.68c.88 0 1.35.64 1.35 1.71 0 1.13-.58 1.69-1.35 1.69m7.09-4.5v3.41l-1.71-3.41h-1.85v5.58h1.34v-3.35l1.73 3.35h1.82v-5.58h-1.34Zm5.75 0v3.41l-1.71-3.41h-1.85v5.58h1.34v-3.35l1.73 3.35h1.82v-5.58h-1.34Zm2.2 0v5.58h1.53v-5.58zm3.92 4.36v-1.03h2.23v-1.18h-2.23v-.92h2.4v-1.23h-3.93v5.58h4v-1.23h-2.47Zm6.67-1.02c.71-.29 1.1-.79 1.1-1.54 0-1.07-.71-1.8-2.38-1.8H48.3v5.58h1.53v-1.98h.53l1.12 1.98h1.82l-1.44-2.24Zm-1.26-.88h-.75v-1.26h.8c.49 0 .74.2.74.62 0 .48-.3.64-.79.64" class="cls-1"/><path d="M56.12 30.41c-.99-.18-1.2-.3-1.2-.6 0-.28.26-.45.77-.45.68 0 1.1.25 1.45.6l.99-.83c-.55-.6-1.35-1-2.47-1-1.38 0-2.3.65-2.3 1.7s.65 1.54 2.06 1.82c1.04.2 1.23.33 1.23.64s-.35.49-.89.49c-.74 0-1.24-.26-1.73-.71l-.95.9c.6.63 1.48 1.05 2.64 1.05 1.46 0 2.51-.62 2.51-1.84 0-1.05-.66-1.53-2.11-1.78Zm-29.83 7.47c.61-.15 1-.47 1-1.15 0-.87-.61-1.42-2.42-1.42h-2.13v5.58h2.44c1.77 0 2.41-.7 2.41-1.62 0-.76-.38-1.21-1.3-1.39m-2.02-1.41h.69c.46 0 .77.11.77.52s-.3.53-.65.53h-.81v-1.04Zm.96 3.28h-.96v-1.22h.94c.34 0 .8.1.8.63 0 .43-.34.59-.78.59m4.38-.08v-1.03h2.23v-1.18h-2.23v-.92h2.4v-1.23h-3.93v5.58h4v-1.23h-2.47Zm6.09-1.83 1.53-2.52h-1.67l-.75 1.59-.79-1.59H32.3l1.59 2.61-1.72 2.97h1.75l.88-2.01.91 2.01h1.8l-1.8-3.05Z" class="cls-1"/></g></svg>