<svg xmlns="http://www.w3.org/2000/svg" width="23" height="23" fill="none"><path fill="#fff" d="M15.946.098H7.054A6.56 6.56 0 0 0 .5 6.652v8.891A6.56 6.56 0 0 0 7.054 22.1h8.892a6.56 6.56 0 0 0 6.554-6.556V6.652A6.557 6.557 0 0 0 15.946.098m4.342 15.445a4.343 4.343 0 0 1-4.342 4.343H7.054a4.34 4.34 0 0 1-4.34-4.343V6.652a4.34 4.34 0 0 1 4.34-4.341h8.892a4.34 4.34 0 0 1 4.34 4.341z"/><path fill="#fff" d="M11.5 5.409a5.693 5.693 0 0 0-5.688 5.688 5.694 5.694 0 0 0 5.689 5.688 5.694 5.694 0 0 0 5.688-5.688 5.693 5.693 0 0 0-5.688-5.688Zm0 9.163a3.475 3.475 0 1 1 0-6.95 3.475 3.475 0 0 1 0 6.95m5.701-10.484a1.363 1.363 0 1 1-1.364 1.364c0-.752.51-1.364 1.364-1.364"/></svg>